<svg xmlns="http://www.w3.org/2000/svg" width="64.644" height="64.641" viewBox="0 0 64.644 64.641">
  <path id="Path_1" data-name="Path 1" d="M62.945,49.287,53.1,39.442a5.808,5.808,0,0,0-8.2,0l-1.3,1.3a5.319,5.319,0,0,1-7.523,0L23.9,28.575a5.319,5.319,0,0,1,0-7.523l1.3-1.3a5.808,5.808,0,0,0,0-8.2L15.359,1.7a5.808,5.808,0,0,0-8.2,0A24.44,24.44,0,0,0,4.282,32.8,106,106,0,0,0,31.85,60.364a24.438,24.438,0,0,0,31.095-2.872,5.8,5.8,0,0,0,0-8.2ZM10.108,4.655a1.625,1.625,0,0,1,2.3,0L22.25,14.5a1.625,1.625,0,0,1,0,2.3l-.586.586L9.535,5.254C9.722,5.051,9.912,4.851,10.108,4.655Zm24.1,52.265A101.848,101.848,0,0,1,7.726,30.434,20.264,20.264,0,0,1,7.014,8.641L19.092,20.718a9.511,9.511,0,0,0,1.858,10.81L33.117,43.7a9.511,9.511,0,0,0,10.81,1.858L56.005,57.632A20.264,20.264,0,0,1,34.212,56.92Zm25.779-2.381c-.2.2-.4.386-.6.573l-12.13-12.13.586-.586a1.625,1.625,0,0,1,2.3,0l9.845,9.845A1.627,1.627,0,0,1,59.991,54.538Z" transform="translate(0 -0.005)" fill="#155e63"/>
</svg>
