<svg xmlns="http://www.w3.org/2000/svg" width="86.212" height="64.641" viewBox="0 0 86.212 64.641">
  <path id="Path_2" data-name="Path 2" d="M79.574,59.3H6.639A6.652,6.652,0,0,0,0,65.939V117.3a6.652,6.652,0,0,0,6.639,6.639H79.574a6.652,6.652,0,0,0,6.639-6.639V65.939A6.652,6.652,0,0,0,79.574,59.3Zm-.964,4.911L43.561,94.185,8.512,64.211ZM81.3,117.3a1.739,1.739,0,0,1-1.728,1.728H6.639A1.739,1.739,0,0,1,4.911,117.3V67.594L41.96,99.278c.018.018.055.036.073.055s.055.036.073.055a.638.638,0,0,0,.146.091c.018.018.036.018.055.036l.218.109c.018,0,.036.018.055.018a1.887,1.887,0,0,0,.182.073c.018,0,.055.018.073.018a.531.531,0,0,0,.164.036c.018,0,.055.018.073.018.055.018.127.018.182.036h.055c.073,0,.164.018.236.018h0a1.037,1.037,0,0,0,.236-.018h.055a.646.646,0,0,0,.182-.036c.018,0,.055-.018.073-.018a.531.531,0,0,1,.164-.036c.018,0,.055-.018.073-.018a1.254,1.254,0,0,0,.182-.073c.018,0,.036-.018.055-.018l.218-.109c.018-.018.036-.018.055-.036.055-.036.091-.055.146-.091.018-.018.055-.036.073-.055s.055-.036.073-.055L81.3,68.376Z" transform="translate(0 -59.3)" fill="#155e63"/>
</svg>
