<svg xmlns="http://www.w3.org/2000/svg" width="112.799" height="112.709" viewBox="0 0 112.799 112.709">
  <g id="_2816039" data-name="2816039" transform="translate(0.3 1279.567)">
    <path id="Path_6" data-name="Path 6" d="M37.615-1279.517a28.01,28.01,0,0,0-9.825,2.723,26.658,26.658,0,0,0-7.71,5.472,28.243,28.243,0,0,0-7.26,12.468,27.985,27.985,0,0,0,.969,17.79,28.09,28.09,0,0,0,9.243,12.142,12.455,12.455,0,0,1,1.084.872c.018.035-.062.088-.176.123-.405.132-2.7,1.26-3.727,1.85A40.394,40.394,0,0,0,.951-1200.841a41.408,41.408,0,0,0-1.19,8.362l-.062,1.516H7.727l.053-.643c.026-.344.07-1.093.1-1.648a30.948,30.948,0,0,1,1.1-6.432,32.287,32.287,0,0,1,23.35-22.6,32.776,32.776,0,0,1,16.521.308,32.825,32.825,0,0,1,6.291,2.538c.088.07-.026.273-.546.952a32.508,32.508,0,0,0-6.089,14.133,37.426,37.426,0,0,0-.317,8.194,32.379,32.379,0,0,0,15.332,24.627,32.92,32.92,0,0,0,13.085,4.511,38.3,38.3,0,0,0,7.648-.053,31.209,31.209,0,0,0,10.767-3.348,27.029,27.029,0,0,0,4.467-2.767,31.922,31.922,0,0,0,9.613-11.472,31.98,31.98,0,0,0,3.384-15.288,31.829,31.829,0,0,0-3.19-13.085,32.168,32.168,0,0,0-24.011-17.834,34.668,34.668,0,0,0-10.283.035,32.084,32.084,0,0,0-12.442,4.9l-1.19.784-.969-.582a48.483,48.483,0,0,0-4.432-2.238c-.229,0-.1-.141.573-.617a28.242,28.242,0,0,0,11.649-22.821,28.207,28.207,0,0,0-24.68-27.976A42.813,42.813,0,0,0,37.615-1279.517Zm4.758,8.115a20.463,20.463,0,0,1,10.265,4.309,22.421,22.421,0,0,1,4.511,5.119,21.077,21.077,0,0,1,2.679,7.04,20.115,20.115,0,0,1-5.6,17.764A20.371,20.371,0,0,1,42-1231.364a32.6,32.6,0,0,1-4.344-.044,20.168,20.168,0,0,1-17.49-16.565,26.2,26.2,0,0,1-.185-5.622,20.089,20.089,0,0,1,11.155-15.878A19.894,19.894,0,0,1,42.373-1271.4Zm41.4,48.444a24.222,24.222,0,0,1,18.539,13.975,24.284,24.284,0,0,1,.678,18.222,26.5,26.5,0,0,1-3.93,6.934,24.5,24.5,0,0,1-12.671,8.15,24.008,24.008,0,0,1-15.816-1.26,23.722,23.722,0,0,1-7.631-5.322,24.09,24.09,0,0,1-6.617-13.6,30.305,30.305,0,0,1,.044-6.626,28.9,28.9,0,0,1,1.181-4.74,31.176,31.176,0,0,1,2.132-4.441,24.228,24.228,0,0,1,9.728-8.952,24.138,24.138,0,0,1,7.992-2.414c.485-.053,1.022-.115,1.19-.132A35.662,35.662,0,0,1,83.768-1222.958Z" fill="#155e63"/>
    <path id="Path_7" data-name="Path 7" d="M743.142-542.947l-.026,6.062-6.053.026L731-536.84v8.018h12.16v12.071h8.018v-12.071h12.071v-8.018H751.178V-549H743.16Z" transform="translate(-666.863 -666.195)" fill="#155e63"/>
  </g>
</svg>
